<svg width="96" height="32" viewBox="0 0 96 32" fill="none" xmlns="http://www.w3.org/2000/svg">
<g clip-path="url(#clip0_1784_6741)">
<path d="M63.9726 0.0112305H64.0991C64.0991 0.0912305 64.1635 0.133455 64.2035 0.186788L72.5517 11.0468C75.0073 14.2409 77.4622 17.4335 79.9163 20.6246C79.9497 20.6878 79.9996 20.7408 80.0606 20.7779L96.0022 0.0534532V32.0001H89.459V19.2535H89.4191L80.0473 31.4757L70.6733 19.2535L70.6356 19.2735V19.4957C70.6356 23.5935 70.6356 27.6927 70.6356 31.7935C70.6356 31.8623 70.6356 31.9335 70.6356 32.0157H56.155C56.1466 31.9234 56.1119 31.8355 56.0551 31.7623C54.6163 28.8779 53.1754 25.9935 51.7322 23.109L48.1287 15.8957C48.1402 15.8755 48.1463 15.8528 48.1467 15.8297C48.147 15.8065 48.1415 15.7836 48.1307 15.7631C48.1199 15.7426 48.1041 15.7252 48.0847 15.7125C48.0654 15.6998 48.0431 15.6921 48.0201 15.6903C47.997 15.6884 47.9738 15.6924 47.9527 15.7019C47.9316 15.7114 47.9132 15.726 47.8992 15.7445C47.8853 15.763 47.8762 15.7847 47.8728 15.8076C47.8695 15.8306 47.872 15.854 47.8801 15.8757C47.7424 16.149 47.6092 16.4223 47.4737 16.6935L39.947 31.7468C39.892 31.8209 39.8575 31.9083 39.8471 32.0001H32.0762V31.9112C32.0969 31.8286 32.1307 31.7499 32.1761 31.6779C36.6536 22.7253 41.1304 13.7712 45.6065 4.81568C46.3703 3.29124 47.1318 1.76604 47.8912 0.240119C47.9267 0.169008 47.9999 0.106786 47.9644 0.0178969H48.0488C48.0133 0.120119 48.091 0.189011 48.1287 0.264567C50.0115 4.0379 51.8965 7.80975 53.7837 11.5801L63.8438 31.7023C63.8771 31.769 63.9148 31.8334 63.9504 31.8979H63.9837V0.244568C63.977 0.16679 63.9748 0.0890082 63.9726 0.0112305Z" fill="white"/>
<path d="M14.0166 32H0V0.0110598H10.0223C10.2798 -0.00894018 10.5307 0.0710652 10.7883 0.0443986C11.6344 0.112964 12.4705 0.273914 13.2817 0.524393C15.138 1.10244 16.7864 2.20802 18.0264 3.70662C18.7787 4.60697 19.2803 5.69019 19.4803 6.84675C19.6803 8.00331 19.5716 9.19222 19.1654 10.2933C19.0877 10.5 19.0877 10.5022 19.2875 10.5755C19.9183 10.8072 20.5319 11.0834 21.1236 11.4022C22.9983 12.3845 24.6004 13.8169 25.7862 15.5711C27.1251 17.5272 27.6638 19.9227 27.2916 22.2644C27.0718 23.7631 26.4845 25.184 25.5819 26.3999C24.5458 27.8007 23.2397 28.9795 21.7409 29.8666C20.2867 30.7481 18.6853 31.3594 17.0139 31.6711C16.2923 31.8128 15.5614 31.9027 14.827 31.9399C14.8092 31.9399 14.787 31.9133 14.7715 31.9177C14.5563 31.9576 14.3371 31.9711 14.1187 31.9577C14.0995 31.9552 14.0799 31.9578 14.062 31.9652C14.0441 31.9726 14.0284 31.9846 14.0166 32ZM7.8642 20.7622V25.3488C7.8642 25.5933 7.84199 25.5711 8.08622 25.5711H13.5414C14.0301 25.5759 14.5183 25.5372 15.0001 25.4555C16.306 25.2553 17.5069 24.6223 18.4105 23.6577C19.5206 22.46 19.8492 21.0577 19.3541 19.4933C19.06 18.6352 18.5097 17.8882 17.7777 17.3533C16.6573 16.4673 15.269 15.9893 13.8412 15.9977C11.9095 15.9799 9.97789 15.9977 8.04626 15.9977C7.86198 15.9977 7.86198 15.9977 7.85976 16.1844C7.85976 16.2266 7.85976 16.2688 7.85976 16.3111L7.8642 20.7622ZM7.8642 7.98218C7.8642 8.45773 7.8642 8.93106 7.8642 9.4044C7.8642 9.5844 7.8642 9.58662 8.03072 9.58662C8.61909 9.58662 9.20524 9.58662 9.79361 9.58662C10.1405 9.59654 10.4865 9.5477 10.8172 9.44217C11.0565 9.37104 11.2702 9.2324 11.4328 9.04283C11.5955 8.85326 11.7001 8.62081 11.7341 8.37328C11.7655 8.18537 11.7737 7.99431 11.7586 7.8044C11.751 7.51108 11.649 7.22805 11.4678 6.99742C11.2866 6.76678 11.0358 6.60088 10.7528 6.52439C10.5841 6.47034 10.4098 6.43604 10.2332 6.42217C9.49166 6.36439 8.74787 6.40884 8.01296 6.39106C7.89972 6.39106 7.86641 6.43106 7.86863 6.53995C7.86641 7.01995 7.8642 7.50218 7.8642 7.98218Z" fill="white"/>
<path d="M96.0022 0.0531699L80.0607 20.7776C79.9996 20.7405 79.9497 20.6875 79.9164 20.6243C77.4608 17.4332 75.0059 14.2406 72.5517 11.0465L64.2035 0.186505C64.1636 0.133171 64.097 0.0909472 64.0992 0.0109471H95.809C95.8712 0.0131694 95.9534 -0.035719 96.0022 0.0531699Z" fill="#FEE475"/>
<path d="M14.8159 31.9401C15.5504 31.9029 16.2813 31.813 17.0029 31.6712C18.6781 31.3609 20.2834 30.7496 21.741 29.8668C23.247 28.9818 24.56 27.8029 25.602 26.4001C26.5045 25.1842 27.0919 23.7633 27.3116 22.2646C27.6839 19.9229 27.1452 17.5274 25.8063 15.5712C24.6204 13.8171 23.0184 12.3847 21.1437 11.4023C20.552 11.0836 19.9384 10.8074 19.3075 10.5757C19.1077 10.5023 19.1077 10.5001 19.1854 10.2935C19.5917 9.19239 19.7003 8.00348 19.5003 6.84692C19.3003 5.69036 18.7988 4.60714 18.0464 3.70679C16.8064 2.20819 15.158 1.10261 13.3017 0.524563C12.4906 0.274085 11.6545 0.113134 10.8083 0.0445692V0.0112305H32.0474C32.0474 0.0890082 32.0474 0.16679 32.0474 0.244568V31.829C32.0474 31.8646 32.0474 31.9001 32.0963 31.9112V32.0001H14.8226C14.7959 31.9823 14.7937 31.9623 14.8159 31.9401Z" fill="#FD6565"/>
<path d="M32.0696 31.9112C32.0274 31.9001 32.023 31.8646 32.0208 31.829V0.244568C32.0208 0.16679 32.0208 0.0890082 32.0208 0.0112305H47.9512C47.9867 0.106786 47.9135 0.169008 47.8779 0.233453C47.1186 1.76086 46.357 3.28605 45.5933 4.80901C41.1216 13.769 36.6493 22.7253 32.1762 31.6779C32.1284 31.7495 32.0924 31.8282 32.0696 31.9112Z" fill="#539BFF"/>
<path d="M63.9725 0.0111084C63.9725 0.0888862 63.9725 0.166668 63.9725 0.244446V31.88H63.9392C63.9037 31.8156 63.8659 31.7511 63.8326 31.6844L53.7726 11.5622C51.8868 7.79185 50.0018 4.02 48.1176 0.246663C48.0798 0.171108 48.0021 0.102222 48.0376 0L63.9725 0.0111084Z" fill="#539BFF"/>
<path d="M39.8428 32.0002C39.8532 31.9084 39.8877 31.821 39.9427 31.7469L47.4738 16.678C47.6093 16.4068 47.7425 16.1335 47.8802 15.8602C47.8721 15.8385 47.8696 15.8151 47.8729 15.7921C47.8763 15.7692 47.8854 15.7475 47.8993 15.729C47.9133 15.7105 47.9317 15.6959 47.9528 15.6864C47.9739 15.6769 47.9971 15.6729 48.0202 15.6748C48.0432 15.6766 48.0655 15.6843 48.0848 15.697C48.1042 15.7097 48.12 15.7272 48.1308 15.7476C48.1416 15.7681 48.1471 15.791 48.1468 15.8142C48.1464 15.8373 48.1403 15.86 48.1288 15.8802L51.7323 23.0935C53.174 25.978 54.615 28.8624 56.0552 31.7469C56.112 31.82 56.1467 31.9079 56.1551 32.0002H39.8428Z" fill="#539BFF"/>
<path d="M70.6401 31.9999C70.6401 31.9288 70.6401 31.8577 70.6401 31.7777C70.6401 27.6777 70.6401 24.3243 70.6401 20.2221V19.2466L70.6779 19.2266L80.0519 31.4488L89.4236 19.2266C89.4369 19.2266 89.4503 19.9799 89.4636 19.9821V31.9821L70.6401 31.9999Z" fill="#FEE475"/>
<path d="M14.816 31.9398C14.7938 31.9621 14.7938 31.9821 14.816 31.9998H14.01C14.0208 31.9862 14.0347 31.9752 14.0505 31.9679C14.0663 31.9605 14.0836 31.957 14.101 31.9576C14.3194 31.971 14.5387 31.9575 14.7538 31.9176C14.776 31.9132 14.7982 31.9332 14.816 31.9398Z" fill="white"/>
<path d="M10.7882 0.0110598V0.0443986C10.5307 0.0710652 10.2798 -0.00894018 10.0222 0.0110598H10.7882Z" fill="#FD6565"/>
<path d="M7.86426 20.7624V16.3047C7.86426 16.2624 7.86426 16.2202 7.86426 16.178C7.86426 15.9935 7.86426 15.9913 8.05076 15.9913C9.98239 15.9913 11.914 15.9913 13.8457 15.9913C15.2735 15.9829 16.6618 16.4609 17.7822 17.3469C18.5142 17.8818 19.0645 18.6288 19.3586 19.4869C19.8537 21.0424 19.5273 22.4535 18.415 23.6513C17.5132 24.6166 16.3139 25.2512 15.0091 25.4535C14.5272 25.5352 14.0391 25.5739 13.5504 25.5691H8.09517C7.84206 25.5691 7.87314 25.5869 7.87314 25.3469L7.86426 20.7624Z" fill="#FD6565"/>
<path d="M7.8643 7.98231C7.8643 7.50231 7.8643 7.02008 7.8643 6.54008C7.8643 6.43119 7.89538 6.38897 8.00862 6.3912C8.75019 6.40897 9.49398 6.36453 10.2289 6.4223C10.4054 6.43617 10.5798 6.47047 10.7484 6.52452C11.0314 6.60101 11.2822 6.76691 11.4634 6.99755C11.6447 7.22818 11.7467 7.51121 11.7542 7.80453C11.7694 7.99444 11.7612 8.1855 11.7298 8.37342C11.6957 8.62094 11.5911 8.8534 11.4285 9.04296C11.2659 9.23253 11.0521 9.37118 10.8128 9.4423C10.4822 9.54783 10.1362 9.59667 9.78928 9.58675C9.20091 9.58675 8.61475 9.58675 8.02638 9.58675C7.86208 9.58675 7.85986 9.58675 7.85986 9.40453C7.86208 8.9312 7.8643 8.45786 7.8643 7.98231Z" fill="#FD6565"/>
</g>
<defs>
<clipPath id="clip0_1784_6741">
<rect width="96" height="32" fill="white"/>
</clipPath>
</defs>
</svg>
